<?xml version="1.0" encoding="utf-8"?>
<!-- Generator: Adobe Illustrator 28.3.0, SVG Export Plug-In . SVG Version: 6.00 Build 0)  -->
<svg version="1.1" id="Capa_1" xmlns="http://www.w3.org/2000/svg" xmlns:xlink="http://www.w3.org/1999/xlink" x="0px" y="0px"
	 viewBox="0 0 800 800" style="enable-background:new 0 0 800 800;" xml:space="preserve">
<style type="text/css">
	.st0{fill:#FFFFFF;}
</style>
<rect class="st0" width="800" height="800"/>
<path d="M455.1,176.8c-33-0.3-72.7,7.5-119,24.3l-95.8,152.5c-2.6,4.1-7,6.6-11.8,6.6l-165.1,1l0.4,185l147.6,1.2
	c6.1,0,11.5,4.1,13.3,9.9c12.4,40.4,41.6,63.4,76.7,77.6c29.1,11.8,61.8,16.7,89.2,18.7c-1.4-15.1-1.4-32.6,2.6-49.2
	c2.9-12,7.9-23.8,16.9-33.2c7.3-7.6,17.3-13.2,29-15.5c-3.8-13.7-3-27.4,0.6-39.7c5.2-18.2,14.8-34.6,22-49.8c0,0,0,0,0,0
	c1.4-13.9,0.6-31.5,3.1-48.3c1.3-8.4,3.4-16.9,8-24.7c3-5,7.2-9.7,12.4-13.2l-18.4-46.1c-12.1,45.8-37.1,77.1-62.9,97.2
	c-17.4,13.6-35.1,22.4-49.2,28.1c-14.1,5.7-26.4,9-27.2,9.3l-9.5-26.5c5.9-2.1,13.9-3.9,26.2-8.9c12.4-5,27.6-12.6,42.4-24.2
	c29.6-23.1,57.9-61,59.6-129.8c0.2-7.8,6.6-13.9,14.4-13.7c5.6,0.1,10.6,3.6,12.7,8.9l40.9,102.6c20.9,9.8,35.6,10.2,48.9,6.2
	c12.1-3.6,23.7-11.8,36-21.1c-5-41.7-17.1-84-32.9-126.8c-20.1-31.6-47.3-49.9-85.2-56C473.1,177.6,464.3,176.9,455.1,176.8
	L455.1,176.8z M655.8,230.4l-58.1,8.5c13.2,37.6,23.9,75.5,29,113.8c39.6,6.6,56.7-1.3,85.5-8.9c8.7-32.1,12.1-59.8,6-77.7
	c-3.3-9.6-8.6-16.9-18.4-23C690.4,237,676.1,232.4,655.8,230.4L655.8,230.4z M708.3,373.8c-23.7,6.6-47.3,13-86.6,6.5
	c-14.4,11.2-30,23.4-50.2,29.5c-19.6,5.9-42.8,4.8-69-7.5c-2.3,1.2-3.7,2.6-5.1,5.1c-1.9,3.1-3.4,8.2-4.4,14.5
	c-1.5,9.6-1.6,22.1-2.3,34.8c66,18,131.9,29.1,197.5,30.9c17-12.9,29.1-27.7,33.7-45C726.6,424.7,724.3,402.8,708.3,373.8
	L708.3,373.8z M484.3,484.4c-7,14.4-14.1,27.5-17.5,39.2c-4.3,14.9-4.2,25.7,8,40.2c47.9,30.3,102.7,40,160.1,47.6
	c20.3-13.4,37.9-26.9,46-40.8c8.3-14.3,9.9-29.1-5.8-55.2C611.4,512.6,547.7,501.6,484.3,484.4L484.3,484.4z M453.2,581.9
	c-1.2,0.4-2.5,0.6-3.7,0.7c-9.3,0.5-14.5,3.4-18.9,7.9c-4.4,4.6-7.8,11.6-9.9,20.3c-3.6,15-2.8,34-0.8,48.7
	c45.8,22.2,92.3,39.5,145.4,41.3c30.2-6.3,40.9-16,47.2-27.7c4.8-9.1,6.7-21.1,9.1-35.1c-55.8-7.7-112.5-18.6-163.8-51.7
	c-1.1-0.7-2-1.5-2.9-2.5C454.3,583.2,453.7,582.5,453.2,581.9L453.2,581.9z"/>
</svg>
